<svg xmlns="http://www.w3.org/2000/svg" viewBox="0 0 24 24">
  <!-- Fondo azul corporativo con bordes redondeados -->
  <rect width="24" height="24" rx="5" fill="#2563eb"/>
  
  <!-- Muela blanca -->
  <path 
    d="M8 3c-2.5 0-4.5 2-4.5 4.5 0 2 .8 3.8 1.6 6.5.7 2.4 1.4 6 2.9 6 1.1 0 1.5-2 2-4 .3-1.2.7-2 2-2s1.7.8 2 2c.5 2 .9 4 2 4 1.5 0 2.2-3.6 2.9-6 .8-2.7 1.6-4.5 1.6-6.5C20.5 5 18.5 3 16 3c-1.6 0-2.8.7-4 .7S9.6 3 8 3z" 
    fill="none" 
    stroke="white" 
    stroke-width="1.8" 
    stroke-linecap="round" 
    stroke-linejoin="round"
    transform="translate(2, 2) scale(0.83)"
  />
</svg>
